<svg width="150" height="30" viewBox="0 0 150 30" fill="none" xmlns="http://www.w3.org/2000/svg">
<path d="M14.625 29.312C12.467 29.312 10.53 28.948 8.814 28.22C7.124 27.492 5.694 26.491 4.524 25.217C3.328 23.917 2.405 22.383 1.755 20.615C1.131 18.847 0.819 16.975 0.819 14.999C0.819 12.841 1.17 10.878 1.872 9.11C2.6 7.316 3.601 5.782 4.875 4.508C6.175 3.234 7.722 2.246 9.516 1.544C11.31 0.815998 13.247 0.451998 15.327 0.451998C16.497 0.451998 17.615 0.555998 18.681 0.763999C19.747 0.971999 20.748 1.245 21.684 1.583C22.62 1.921 23.491 2.272 24.297 2.636V6.107L21.645 6.263C20.891 5.847 19.955 5.535 18.837 5.327C17.719 5.093 16.64 4.976 15.6 4.976C13.676 4.976 12.012 5.392 10.608 6.224C9.23 7.056 8.177 8.213 7.449 9.695C6.721 11.177 6.357 12.919 6.357 14.921C6.357 16.819 6.695 18.522 7.371 20.03C8.047 21.512 9.048 22.682 10.374 23.54C11.7 24.398 13.312 24.827 15.21 24.827C16.276 24.827 17.277 24.671 18.213 24.359C19.175 24.021 20.085 23.462 20.943 22.682C21.073 22.578 21.216 22.5 21.372 22.448C21.528 22.37 21.684 22.331 21.84 22.331C22.126 22.331 22.373 22.435 22.581 22.643L24.726 24.905C23.634 26.283 22.243 27.362 20.553 28.142C18.863 28.922 16.887 29.312 14.625 29.312ZM20.514 5.21L24.297 6.107V9.539H22.269C21.931 9.539 21.671 9.448 21.489 9.266C21.307 9.058 21.177 8.772 21.099 8.408L20.514 5.21ZM37.0098 8.642C39.0378 8.642 40.7928 9.071 42.2748 9.929C43.7568 10.761 44.9008 11.957 45.7068 13.517C46.5128 15.051 46.9158 16.858 46.9158 18.938C46.9158 21.018 46.5128 22.838 45.7068 24.398C44.9008 25.932 43.7568 27.141 42.2748 28.025C40.7928 28.883 39.0378 29.312 37.0098 29.312C35.0078 29.312 33.2528 28.883 31.7448 28.025C30.2628 27.141 29.1058 25.932 28.2738 24.398C27.4418 22.838 27.0258 21.018 27.0258 18.938C27.0258 16.858 27.4418 15.051 28.2738 13.517C29.1058 11.957 30.2628 10.761 31.7448 9.929C33.2528 9.071 35.0078 8.642 37.0098 8.642ZM37.0098 25.568C38.6478 25.568 39.8568 25.009 40.6368 23.891C41.4168 22.773 41.8068 21.135 41.8068 18.977C41.8068 17.521 41.6378 16.312 41.2998 15.35C40.9618 14.362 40.4288 13.621 39.7008 13.127C38.9988 12.633 38.1018 12.386 37.0098 12.386C35.9178 12.386 35.0078 12.646 34.2798 13.166C33.5518 13.66 33.0058 14.401 32.6418 15.389C32.3038 16.351 32.1348 17.547 32.1348 18.977C32.1348 21.083 32.5248 22.708 33.3048 23.852C34.1108 24.996 35.3458 25.568 37.0098 25.568ZM57.7791 29.312C56.3231 29.312 55.0881 28.987 54.0741 28.337C53.0601 27.661 52.2931 26.764 51.7731 25.646C51.2531 24.502 50.9931 23.189 50.9931 21.707V8.954H55.9461V21.707C55.9461 22.929 56.2191 23.878 56.7651 24.554C57.3111 25.204 58.1431 25.529 59.2611 25.529C60.0931 25.529 60.8601 25.347 61.5621 24.983C62.2641 24.619 62.9401 24.112 63.5901 23.462V8.954H68.5041V29H65.5011C64.8251 29 64.4091 28.701 64.2531 28.103L63.9411 26.543C63.1091 27.349 62.1991 28.012 61.2111 28.532C60.2231 29.052 59.0791 29.312 57.7791 29.312ZM67.5681 29L68.0751 25.061L70.2981 25.529C70.6621 25.607 70.9351 25.737 71.1171 25.919C71.3251 26.101 71.4291 26.374 71.4291 26.738V29H67.5681ZM51.9291 8.954L51.4611 12.893L49.1991 12.425C48.8611 12.347 48.5881 12.217 48.3801 12.035C48.1721 11.853 48.0681 11.58 48.0681 11.216V8.954H51.9291ZM64.5261 8.954L64.0191 12.893L61.7961 12.425C61.4321 12.347 61.1461 12.217 60.9381 12.035C60.7561 11.853 60.6651 11.58 60.6651 11.216V8.954H64.5261ZM76.0747 29V8.954H79.0777C79.7537 8.954 80.1697 9.253 80.3257 9.851L80.6377 11.45C81.4697 10.592 82.3797 9.916 83.3677 9.422C84.3557 8.902 85.5127 8.642 86.8387 8.642C88.2947 8.642 89.5167 8.967 90.5047 9.617C91.5187 10.267 92.2857 11.164 92.8057 12.308C93.3257 13.452 93.5857 14.765 93.5857 16.247V29H88.6327V16.247C88.6327 15.051 88.3597 14.115 87.8137 13.439C87.2677 12.763 86.4357 12.425 85.3177 12.425C84.5117 12.425 83.7447 12.62 83.0167 13.01C82.3147 13.374 81.6387 13.881 80.9887 14.531V29H76.0747ZM73.1497 29V26.738C73.1497 26.374 73.2407 26.101 73.4227 25.919C73.6307 25.737 73.9167 25.607 74.2807 25.529L76.5037 25.061L77.0107 29H73.1497ZM80.0527 29L80.5597 25.061L82.7827 25.529C83.1467 25.607 83.4197 25.737 83.6017 25.919C83.8097 26.101 83.9137 26.374 83.9137 26.738V29H80.0527ZM92.6497 29L93.1177 25.061L95.3797 25.529C95.7177 25.607 95.9907 25.737 96.1987 25.919C96.4067 26.101 96.5107 26.374 96.5107 26.738V29H92.6497ZM77.0107 8.954L76.5037 12.893L74.2807 12.425C73.9167 12.347 73.6307 12.217 73.4227 12.035C73.2407 11.853 73.1497 11.58 73.1497 11.216V8.954H77.0107ZM106.01 29.312C104.268 29.312 102.916 28.818 101.954 27.83C101.018 26.842 100.55 25.477 100.55 23.735V12.581H98.5222C98.2622 12.581 98.0412 12.503 97.8592 12.347C97.6772 12.191 97.5862 11.944 97.5862 11.606V9.656L100.823 9.11L101.837 3.689C101.941 3.143 102.305 2.87 102.929 2.87H105.464V9.149H110.729V12.581H105.464V23.423C105.464 24.047 105.62 24.541 105.932 24.905C106.244 25.243 106.66 25.412 107.18 25.412C107.466 25.412 107.726 25.36 107.96 25.256C108.194 25.126 108.415 25.009 108.623 24.905C108.831 24.801 109.013 24.749 109.169 24.749C109.403 24.749 109.611 24.892 109.793 25.178L111.275 27.557C110.573 28.103 109.767 28.532 108.857 28.844C107.947 29.156 106.998 29.312 106.01 29.312ZM122.93 29.312C120.928 29.312 119.186 28.87 117.704 27.986C116.222 27.076 115.065 25.815 114.233 24.203C113.427 22.565 113.024 20.68 113.024 18.548C113.024 16.676 113.427 14.999 114.233 13.517C115.039 12.009 116.17 10.826 117.626 9.968C119.082 9.084 120.772 8.642 122.696 8.642C124.438 8.642 125.959 9.019 127.259 9.773C128.585 10.501 129.599 11.541 130.301 12.893C131.029 14.245 131.393 15.857 131.393 17.729C131.393 18.431 131.328 18.925 131.198 19.211C131.068 19.471 130.756 19.601 130.262 19.601H117.977C117.977 19.679 117.977 19.757 117.977 19.835C117.977 19.913 117.99 19.991 118.016 20.069C118.224 21.889 118.783 23.254 119.693 24.164C120.629 25.074 121.851 25.529 123.359 25.529C124.061 25.529 124.763 25.386 125.465 25.1C126.193 24.814 126.856 24.528 127.454 24.242C128.052 23.93 128.533 23.774 128.897 23.774C129.261 23.774 129.56 23.917 129.794 24.203L131.237 25.997C130.535 26.803 129.716 27.453 128.78 27.947C127.87 28.441 126.908 28.792 125.894 29C124.906 29.208 123.918 29.312 122.93 29.312ZM118.055 16.676H126.986C126.986 15.376 126.635 14.297 125.933 13.439C125.231 12.581 124.191 12.152 122.813 12.152C121.435 12.152 120.343 12.542 119.537 13.322C118.757 14.102 118.263 15.22 118.055 16.676ZM136.403 29V8.954H139.289C139.809 8.954 140.16 9.058 140.342 9.266C140.55 9.448 140.693 9.76 140.771 10.202L141.044 12.581C141.772 11.333 142.604 10.358 143.54 9.656C144.502 8.954 145.581 8.603 146.777 8.603C147.271 8.603 147.713 8.668 148.103 8.798C148.519 8.902 148.883 9.058 149.195 9.266L148.571 12.932C148.545 13.166 148.454 13.335 148.298 13.439C148.168 13.517 147.999 13.556 147.791 13.556C147.661 13.556 147.362 13.517 146.894 13.439C146.426 13.361 146.01 13.322 145.646 13.322C144.658 13.322 143.813 13.595 143.111 14.141C142.409 14.687 141.811 15.48 141.317 16.52V29H136.403ZM140.381 29L140.888 25.061L143.111 25.529C143.475 25.607 143.748 25.737 143.93 25.919C144.138 26.101 144.242 26.374 144.242 26.738V29H140.381ZM133.478 29V26.738C133.478 26.374 133.569 26.101 133.751 25.919C133.959 25.737 134.245 25.607 134.609 25.529L136.832 25.061L137.339 29H133.478ZM137.339 8.954L136.832 12.893L134.609 12.425C134.245 12.347 133.959 12.217 133.751 12.035C133.569 11.853 133.478 11.58 133.478 11.216V8.954H137.339Z" fill="#003399"/>
</svg>
